<?xml version="1.0" encoding="UTF-8"?>
<svg width="100" height="100" viewBox="0 0 100 100" xmlns="http://www.w3.org/2000/svg">
  <path d="M0 0h100v100H0z" fill="none"/>
  
  <!-- Horizontal lines -->
  <path d="M10 20h80M10 50h80M10 80h80" stroke="#FFFFFF" stroke-opacity="0.1" stroke-width="1"/>
  
  <!-- Vertical lines -->
  <path d="M20 10v80M50 10v80M80 10v80" stroke="#FFFFFF" stroke-opacity="0.1" stroke-width="1"/>
  
  <!-- Connection nodes -->
  <circle cx="20" cy="20" r="2" fill="#FFFFFF" fill-opacity="0.2"/>
  <circle cx="50" cy="20" r="2" fill="#FFFFFF" fill-opacity="0.2"/>
  <circle cx="80" cy="20" r="2" fill="#FFFFFF" fill-opacity="0.2"/>
  
  <circle cx="20" cy="50" r="2" fill="#FFFFFF" fill-opacity="0.2"/>
  <circle cx="50" cy="50" r="2" fill="#FFFFFF" fill-opacity="0.2"/>
  <circle cx="80" cy="50" r="2" fill="#FFFFFF" fill-opacity="0.2"/>
  
  <circle cx="20" cy="80" r="2" fill="#FFFFFF" fill-opacity="0.2"/>
  <circle cx="50" cy="80" r="2" fill="#FFFFFF" fill-opacity="0.2"/>
  <circle cx="80" cy="80" r="2" fill="#FFFFFF" fill-opacity="0.2"/>
  
  <!-- Circuit paths -->
  <path d="M20 20C30 20 30 30 50 30C70 30 70 20 80 20" stroke="#FFFFFF" stroke-opacity="0.1" stroke-width="1" fill="none"/>
  <path d="M20 50C30 50 40 60 50 60C60 60 70 50 80 50" stroke="#FFFFFF" stroke-opacity="0.1" stroke-width="1" fill="none"/>
  <path d="M20 80C30 80 40 70 60 70C70 70 70 80 80 80" stroke="#FFFFFF" stroke-opacity="0.1" stroke-width="1" fill="none"/>
</svg>
